<svg id="b062ca7e-7309-4502-88e0-ee00220bdcbf" data-name="Layer 1" xmlns="http://www.w3.org/2000/svg" viewBox="0 0 113 113"><title>K&amp;amp;M_Logo</title><circle cx="56.5" cy="56.5" r="56.5" style="fill:#fff"/><path d="M1004.8825,520.5809a75.2374,75.2374,0,0,0-8.5325-12.7983,8.42,8.42,0,0,0-2.5086-2.4173c-.6562-1.2905-1.9931-1.8819-2.9728-2.84-.2652-.2594-.3895-.9779-1.06-.6816a11.1991,11.1991,0,0,0-3.5954-2.474,25.7778,25.7778,0,0,0-6.295-3.2494,8.4659,8.4659,0,0,0-4.6973-1.4191,14.0775,14.0775,0,0,0-3.636-.8488,22.5341,22.5341,0,0,0-5.5538-.5026,51.5652,51.5652,0,0,0-7.5427-.8567,55.0592,55.0592,0,0,0-8.6278.8113l-3.82.5375a3.13,3.13,0,0,0-2.2259.467c-.9649.39-2.1585.4885-2.837,1.4722a10.4772,10.4772,0,0,0-3.3736,1.7651,4.9052,4.9052,0,0,0-2.1458,4.3165,4.967,4.967,0,0,1-.2246,1.155,6.2673,6.2673,0,0,0,.5107,4.596c.3925.6641.8761,1.2081,1.3061,1.8169.9906,1.4026,1.8248,2.9309,2.9257,4.2368,1.77,2.0993,3.0959,4.5092,4.853,6.6121,1.128,1.35,1.8214,3.0215,3.0636,4.2976a12.1493,12.1493,0,0,0,1.8445,2.8664A27.74,27.74,0,0,0,952.82,531.91a9.8647,9.8647,0,0,0,1.8591,2.8651,1.4365,1.4365,0,0,0,.1569.4219c2.3607,2.9258,4.2633,6.1685,6.4088,9.2425,1.3882,1.9891,2.5345,4.144,4.1175,5.9982l2.49,4.2068,2.0275,3.042a22.0545,22.0545,0,0,0,2.6343,3.9171,10.6281,10.6281,0,0,0,1.8949,3.0856c1.1564,1.2573,1.62,2.9141,2.6151,4.2831,1.7891,2.4619,3.4251,5.0447,4.9791,7.6638a4.1776,4.1776,0,0,0,3.13,2.121,5.204,5.204,0,0,1,1.0052.317c2.4556.9605,5.36.5173,6.8673-1.056l.2053-.1836.2915-.2c1.1973-.54,1.6192-1.7428,2.3145-2.7119a13.6116,13.6116,0,0,0,3.04-4.1812,5.0934,5.0934,0,0,0,1.5042-2.6531,16.6522,16.6522,0,0,0,2.64-3.772,32.3215,32.3215,0,0,0,2.24-5.8183c.3236-1.2191,1.1828-2.3164.973-3.6735.5044-1.8534,1.4341-3.5835,1.6052-5.5336.7436-1.12.3078-2.4963.8007-3.67a24.7494,24.7494,0,0,0,.4455-6.5442,20.7947,20.7947,0,0,0-.5656-6.5272c-.0362-1.5612-.548-3.0506-.6913-4.595a.8.8,0,0,0-.4306-.6422,10.3385,10.3385,0,0,0-.9109-2.6828C1006.27,523.15,1005.3737,521.9451,1004.8825,520.5809Zm-84.29,42.3733a12.1875,12.1875,0,0,0,3.4947,2.7191,24.0314,24.0314,0,0,0,8.8491,4.0566,36.4124,36.4124,0,0,0,10.613.2863,39.87,39.87,0,0,0,16.6049-5.0625,3.7564,3.7564,0,0,0,1.6054-5.153,40.08,40.08,0,0,0-3.0527-4.6307c-1.892-2.9906-3.9292-5.8814-5.7433-8.93-2.9563-4.9686-6.4493-9.6012-9.4058-14.5822-1.5858-2.6719-3.4562-5.1732-5.1005-7.8124-2.2826-3.6638-4.3218-7.4792-6.7981-11.0228a5.5456,5.5456,0,0,0-4.6733-2.6967,8.0469,8.0469,0,0,0-5.7532,2.6579,45.5138,45.5138,0,0,0-7.0109,9.8984,36.2852,36.2852,0,0,0-3.1062,7.1393c-1.3791,4.8635-1.1275,9.8443-.9722,14.8136.01.3064-.0205.6444.2661.8752a7.4728,7.4728,0,0,0,1.2488,4.669,1.5087,1.5087,0,0,0,.0408.4523A31.081,31.081,0,0,0,920.593,562.9542Zm46.4346,6.9692a17.6753,17.6753,0,0,0-2.4366.14c-2.1145.3885-4.038,1.0782-5.229,3.1285-2.08,3.5814-1.9657,9.4524,2.3864,12.0561,4.5511,2.7227,8.201,1.6628,11.4288-1.0236,2.5627-2.1328,3.0451-7.3072,1.0783-10.1162A8.9077,8.9077,0,0,0,967.0276,569.9234Z" transform="translate(-903.5 -483.5)" style="fill:#fefefe"/><path d="M910.41,545.51c-.2866-.2308-.2565-.5688-.2661-.8752-.1553-4.9693-.4069-9.95.9722-14.8136a36.2852,36.2852,0,0,1,3.1062-7.1393,45.5138,45.5138,0,0,1,7.0109-9.8984,8.0469,8.0469,0,0,1,5.7532-2.6579,5.5456,5.5456,0,0,1,4.6733,2.6967c2.4763,3.5436,4.5155,7.359,6.7981,11.0228,1.6443,2.6392,3.5147,5.14,5.1005,7.8124,2.9565,4.981,6.4495,9.6136,9.4058,14.5822,1.8141,3.0491,3.8513,5.94,5.7433,8.93a40.08,40.08,0,0,1,3.0527,4.6307,3.7564,3.7564,0,0,1-1.6054,5.153,39.87,39.87,0,0,1-16.6049,5.0625,36.4124,36.4124,0,0,1-10.613-.2863,24.02,24.02,0,0,1-8.8478-4.0563c3.438-3.1611,4.1046-7.2068,3.5656-11.5665-.4616-3.7332-2.7408-6.289-5.8354-8.1448-3.3527-2.01-6.8514-2.6472-10.4932-.6657A3.518,3.518,0,0,1,910.41,545.51Zm24.9788-15.453c-.2809-3.3559-1.4482-6.6579-5.1161-8.3622-2.832-1.3159-5.7663-.87-8.6211.1547a6.7405,6.7405,0,0,0-4.5039,4.7787,7.9646,7.9646,0,0,0,.5379,5.193c.8716,2.1407,1.8779,4.2058,3.9721,5.4018,3.1507,1.7993,6.2552,1.33,9.32-.3469A7.7893,7.7893,0,0,0,935.3888,530.0568Zm7.4754,15.6107c-5.2848.6876-9.7168,2.4224-9.7137,7.6376.0032,5.43,2.6873,8.7869,8.4131,9.354,4.253.4213,8.8152-3.4658,8.8852-7.4356C950.5257,550.8568,947.62,545.8762,942.8642,545.6675Z" transform="translate(-903.5 -483.5)" style="fill:#fd2148"/><path d="M947.8928,524.5767c-1.2422-1.2761-1.9356-2.9476-3.0636-4.2976-1.7571-2.1029-3.0833-4.5128-4.853-6.6121-1.1009-1.3059-1.9351-2.8342-2.9257-4.2368-.43-.6088-.9136-1.1528-1.3061-1.8169a6.2673,6.2673,0,0,1-.5107-4.596,4.967,4.967,0,0,0,.2246-1.155,4.9051,4.9051,0,0,1,2.1457-4.3164c.7332.7122.8465,1.7442,1.3343,2.5893a40.1631,40.1631,0,0,0,6.1777,7.6991c4.7073,4.8726,10.5649,6.4336,17.0014,5.7669,7.2067-.7464,11.4741-5.629,14.6744-11.6049a33.2983,33.2983,0,0,0,2.039-5.1528c.2189-.6521.516-.7945,1.0873-.7236a25.7555,25.7555,0,0,1,6.2946,3.25c-.0476.4434-.3768.63-.6942.8852a11.8325,11.8325,0,0,0-1.7986,1.7022,15.76,15.76,0,0,0-3.6173,12.2813,25.1333,25.1333,0,0,0,6.3567,14.3154,18.8679,18.8679,0,0,0,7.832,5.1086,11.856,11.856,0,0,0,5.3026.9167,28.4255,28.4255,0,0,0,8.9071-2.0294,20.7943,20.7943,0,0,1,.5656,6.5271,24.4055,24.4055,0,0,0-12.0958,1.863,26.4475,26.4475,0,0,0-6.2357,3.7628,18.712,18.712,0,0,0-5.6315,7.5871c-1.4329,3.5025-1.2513,7.1733-.5787,10.7978a25.2759,25.2759,0,0,0,5.6882,11.7543,9.1225,9.1225,0,0,0,3.29,2.7933l-.2914.2-.2054.1835c-1.5076,1.5733-4.4117,2.0165-6.8673,1.056a5.204,5.204,0,0,0-1.0052-.317,4.1776,4.1776,0,0,1-3.13-2.121c-1.554-2.6191-3.19-5.2019-4.9791-7.6638-.995-1.369-1.4587-3.0258-2.6151-4.2831a10.6289,10.6289,0,0,1-1.8949-3.0855,21.6459,21.6459,0,0,0,4.5168-5.2234c2.1885-3.4575,4.2934-6.8822,5.0513-11.05a19.1081,19.1081,0,0,0-1.13-11.1258,24.7912,24.7912,0,0,0-3.1564-4.9357,21.4625,21.4625,0,0,0-11.5069-8.1854,20.4212,20.4212,0,0,0-11.4152-.2385A14.7843,14.7843,0,0,0,947.8928,524.5767Z" transform="translate(-903.5 -483.5)" style="fill:#c5cf01"/><path d="M947.8928,524.5767a14.7843,14.7843,0,0,1,6.9806-3.7312,20.4212,20.4212,0,0,1,11.4152.2385,21.4625,21.4625,0,0,1,11.5069,8.1854,24.7912,24.7912,0,0,1,3.1564,4.9357,19.1081,19.1081,0,0,1,1.13,11.1258c-.7579,4.1674-2.8628,7.5921-5.0513,11.05a21.6459,21.6459,0,0,1-4.5168,5.2234,22.0589,22.0589,0,0,1-2.6343-3.9172,1.0087,1.0087,0,0,0,.7959-.4424,47.5446,47.5446,0,0,0,3.7564-4.8238,20.0479,20.0479,0,0,0,3.5477-8.891,12.5352,12.5352,0,0,0-1.9969-8.3345,20.795,20.795,0,0,0-8.7833-8.276,18.97,18.97,0,0,0-9.854-1.7118,17.1485,17.1485,0,0,0-7.6083,2.2359A12.1493,12.1493,0,0,1,947.8928,524.5767Z" transform="translate(-903.5 -483.5)" style="fill:#e4e900"/><path d="M993.5027,577.6351a9.1225,9.1225,0,0,1-3.29-2.7933,25.2759,25.2759,0,0,1-5.6882-11.7543c-.6726-3.6245-.8542-7.2953.5787-10.7978a18.712,18.712,0,0,1,5.6315-7.5871,26.4475,26.4475,0,0,1,6.2357-3.7628,24.4055,24.4055,0,0,1,12.0958-1.863,24.724,24.724,0,0,1-.4459,6.5434c-.0428-.5056-.1412-.8953-.8094-.9124a22.061,22.061,0,0,0-7.9829,1.2506,26.457,26.457,0,0,0-6.0019,3.1863,12.0077,12.0077,0,0,0-5.5339,11.94,22.9544,22.9544,0,0,0,4.4523,10.7905,8.685,8.685,0,0,0,3.0723,3.0478C995.1219,575.8923,994.7,577.0948,993.5027,577.6351Z" transform="translate(-903.5 -483.5)" style="fill:#e4e900"/><path d="M979.9181,496.12c-.5713-.0709-.8684.0715-1.0873.7236a33.2983,33.2983,0,0,1-2.039,5.1528c-3.2,5.9759-7.4677,10.8585-14.6744,11.6049-6.4365.6667-12.2941-.8943-17.0014-5.7669a40.1631,40.1631,0,0,1-6.1777-7.6991c-.4878-.8451-.6011-1.8771-1.3343-2.5893a10.4759,10.4759,0,0,1,3.3739-1.7652,1.8217,1.8217,0,0,0,.2995,1.3546,36.3856,36.3856,0,0,0,2.4105,3.1974c1.3,1.37,2.721,2.6126,4.0576,3.9356,3.8225,3.7835,8.5078,4.7329,13.57,4.27a12.2323,12.2323,0,0,0,7.9055-4.2262,25.6375,25.6375,0,0,0,6-9.6112A8.4659,8.4659,0,0,1,979.9181,496.12Z" transform="translate(-903.5 -483.5)" style="fill:#e4e900"/><path d="M949.7373,527.4431a17.1485,17.1485,0,0,1,7.6083-2.2359,18.97,18.97,0,0,1,9.854,1.7118,20.795,20.795,0,0,1,8.7833,8.276A12.5352,12.5352,0,0,1,977.98,543.53a20.0479,20.0479,0,0,1-3.5477,8.891,47.5446,47.5446,0,0,1-3.7564,4.8238,1.0087,1.0087,0,0,1-.7959.4424l-2.0275-3.042a1.0024,1.0024,0,0,1,.3783-.8218,17.1835,17.1835,0,0,0,3.2869-4.848,11.9781,11.9781,0,0,0-.9114-12.5154,13.1556,13.1556,0,0,0-12.6247-6.281A9.2748,9.2748,0,0,0,952.82,531.91,27.74,27.74,0,0,1,949.7373,527.4431Z" transform="translate(-903.5 -483.5)" style="fill:#c5cf01"/><path d="M1008.501,532.55a28.4255,28.4255,0,0,1-8.9071,2.0294,11.856,11.856,0,0,1-5.3026-.9167,18.8679,18.8679,0,0,1-7.832-5.1086,25.1333,25.1333,0,0,1-6.3567-14.3154,15.76,15.76,0,0,1,3.6173-12.2813,11.8325,11.8325,0,0,1,1.7986-1.7022c.3174-.255.6466-.4418.6942-.8852a11.1666,11.1666,0,0,1,3.595,2.4744,11.5054,11.5054,0,0,0-5.72,10.0006,18.9938,18.9938,0,0,0,11.2463,17.1239,7.69,7.69,0,0,0,3.9858.8853,27.7722,27.7722,0,0,0,4.5162-.782c1.2547-.3647,2.7919-.3224,3.5427-1.7594a.8.8,0,0,1,.4306.6422C1007.953,529.4991,1008.4648,530.9885,1008.501,532.55Z" transform="translate(-903.5 -483.5)" style="fill:#e4e900"/><path d="M1007.3791,527.3125c-.7508,1.437-2.288,1.3947-3.5427,1.7594a27.7722,27.7722,0,0,1-4.5162.782,7.69,7.69,0,0,1-3.9858-.8853,18.9938,18.9938,0,0,1-11.2463-17.1239,11.5054,11.5054,0,0,1,5.72-10.0006c.6714-.2971.7957.4214,1.0609.6808.98.9585,2.3166,1.55,2.9725,2.84-.1507.1813-.2934.37-.4526.5434a10.4768,10.4768,0,0,0-2.18,11.0834,12.4044,12.4044,0,0,0,15.26,7.6378A10.3385,10.3385,0,0,1,1007.3791,527.3125Z" transform="translate(-903.5 -483.5)" style="fill:#c5cf01"/><path d="M975.2208,494.7008a25.6375,25.6375,0,0,1-6,9.6112,12.2323,12.2323,0,0,1-7.9055,4.2262c-5.0618.463-9.7471-.4864-13.57-4.27-1.3366-1.323-2.7572-2.5651-4.0576-3.9356a36.3856,36.3856,0,0,1-2.4105-3.1974,1.8217,1.8217,0,0,1-.2995-1.3546c.6783-.9837,1.8719-1.0826,2.8368-1.4722a3.13,3.13,0,0,1,2.226-.467c1.8762,7.021,8.3693,10.6434,15.3762,9.2761a11.3434,11.3434,0,0,0,8.8672-7.4688c.248-.65.3376-1.5906,1.3007-1.7968A14.0775,14.0775,0,0,1,975.2208,494.7008Z" transform="translate(-903.5 -483.5)" style="fill:#c5cf01"/><path d="M967.0276,569.9234a8.9077,8.9077,0,0,1,7.2279,4.1844c1.9668,2.809,1.4844,7.9834-1.0783,10.1162-3.2278,2.6864-6.8777,3.7463-11.4288,1.0236-4.3521-2.6037-4.4668-8.4747-2.3864-12.0561,1.191-2.05,3.1145-2.74,5.229-3.1285A17.6753,17.6753,0,0,1,967.0276,569.9234Zm-2.4634,12.21a3.1829,3.1829,0,0,0,.4721.0156c1.6685-.1859,3.4039.1253,4.9987-.59,1.14-.5118,1.41-1.2046.85-2.25-1.0381-1.9406-2.0933-3.875-3.2276-5.76-.8191-1.3615-1.9709-1.3139-2.6837.0854q-1.5508,3.0446-2.9679,6.1566a1.4921,1.4921,0,0,0,.8257,2.064A3.6579,3.6579,0,0,0,964.5642,582.1338Z" transform="translate(-903.5 -483.5)" style="fill:#69cfcc"/><path d="M995.8172,574.9232a8.685,8.685,0,0,1-3.0723-3.0478,22.9544,22.9544,0,0,1-4.4523-10.7905,12.0077,12.0077,0,0,1,5.5339-11.94,26.457,26.457,0,0,1,6.0019-3.1863,22.061,22.061,0,0,1,7.9829-1.2506c.6682.0171.7666.4068.8094.9124-.4925,1.175-.0567,2.5518-.8005,3.6709a27.405,27.405,0,0,0-8.0211.9911,10.0747,10.0747,0,0,0-7.33,6.8809,10.71,10.71,0,0,0,1.7421,9.7432,9.5833,9.5833,0,0,0,4.6463,3.8357A13.6116,13.6116,0,0,1,995.8172,574.9232Z" transform="translate(-903.5 -483.5)" style="fill:#c5cf01"/><path d="M952.82,531.91a9.2748,9.2748,0,0,1,5.1613-1.7317,13.1556,13.1556,0,0,1,12.6247,6.281,11.9781,11.9781,0,0,1,.9114,12.5154,17.1835,17.1835,0,0,1-3.2869,4.848,1.0024,1.0024,0,0,0-.3783.8218q-1.2449-2.1034-2.49-4.207c.763-.317,1.0352-1.0623,1.396-1.6937,1.8057-3.16,2.3681-6.3811-.0084-9.5035-2.3643-3.1064-5.37-5.0326-9.4868-4.6194-.8578.0861-1.7224.1046-2.5838.1542A9.8647,9.8647,0,0,1,952.82,531.91Z" transform="translate(-903.5 -483.5)" style="fill:#e4e900"/><path d="M910.41,545.51a3.518,3.518,0,0,0,.916-.2132c3.6418-1.9815,7.14-1.3448,10.4932.6657,3.0946,1.8558,5.3738,4.4116,5.8354,8.1448.539,4.36-.1276,8.4054-3.5656,11.5665a12.1824,12.1824,0,0,1-3.4958-2.7191c.282-.2747.58-.535.8431-.8268,2.5429-2.82,3.3216-6.4708,1.173-9.5894a9.1671,9.1671,0,0,0-8.6847-3.62c-.8286.1624-1.8369.2615-2.2658,1.26A7.4728,7.4728,0,0,1,910.41,545.51Z" transform="translate(-903.5 -483.5)" style="fill:#780d1b"/><path d="M998.8576,570.742a9.5833,9.5833,0,0,1-4.6463-3.8357,10.71,10.71,0,0,1-1.7421-9.7432,10.0747,10.0747,0,0,1,7.33-6.8809,27.405,27.405,0,0,1,8.0211-.9911c-.1709,1.95-1.1006,3.6806-1.6055,5.5338a18.8584,18.8584,0,0,0-5.681.7464,5.2407,5.2407,0,0,0-4.2059,5.604,7.813,7.813,0,0,0,1.8151,4.5165c.6976.8343,1.4765,1.6005,2.2189,2.3971A5.0934,5.0934,0,0,1,998.8576,570.742Z" transform="translate(-903.5 -483.5)" style="fill:#e4e900"/><path d="M971.5848,493.852c-.9631.2062-1.0527,1.1472-1.3007,1.7968a11.3434,11.3434,0,0,1-8.8672,7.4688c-7.0069,1.3673-13.5-2.2551-15.3762-9.2761l3.82-.5375c-.4856.6371.1054,1.0566.3832,1.4393,2.8636,3.9441,6.8371,5.0642,11.4295,3.4678a6.5172,6.5172,0,0,0,4.3578-4.8617A22.5341,22.5341,0,0,1,971.5848,493.852Z" transform="translate(-903.5 -483.5)" style="fill:#e4e900"/><path d="M954.6792,534.7753c.8614-.05,1.726-.0681,2.5838-.1542,4.1167-.4132,7.1225,1.513,9.4868,4.6194,2.3765,3.1224,1.8141,6.3433.0084,9.5035-.3608.6314-.633,1.3767-1.396,1.6937-1.5828-1.854-2.7291-4.0089-4.1173-5.998-2.1455-3.074-4.0481-6.3167-6.4088-9.2425A1.4365,1.4365,0,0,1,954.6792,534.7753Z" transform="translate(-903.5 -483.5)" style="fill:#c5cf01"/><path d="M1006.4682,524.63a12.4044,12.4044,0,0,1-15.26-7.6378,10.4768,10.4768,0,0,1,2.18-11.0834c.1592-.1735.3019-.3621.4526-.5434a8.4047,8.4047,0,0,1,2.5081,2.4179c-.1341.1946-.2585.3958-.4023.5821a7.3727,7.3727,0,0,0,3.9837,11.9531,23.1835,23.1835,0,0,0,4.9519.2627C1005.3737,521.9451,1006.27,523.15,1006.4682,524.63Z" transform="translate(-903.5 -483.5)" style="fill:#e4e900"/><path d="M911.6588,550.1788c.4289-.9986,1.4372-1.0977,2.2658-1.26a9.1671,9.1671,0,0,1,8.6847,3.62c2.1486,3.1186,1.37,6.7695-1.173,9.5894-.2631.2918-.5611.5521-.8431.8268A31.0826,31.0826,0,0,1,911.7,550.6311,1.5087,1.5087,0,0,1,911.6588,550.1788Z" transform="translate(-903.5 -483.5)" style="fill:#fd2148"/><path d="M1000.3618,568.0889c-.7424-.7966-1.5213-1.5628-2.2189-2.3971a7.813,7.813,0,0,1-1.8151-4.5165,5.2407,5.2407,0,0,1,4.2059-5.604,18.8584,18.8584,0,0,1,5.681-.7464c.21,1.3573-.6489,2.4546-.9725,3.6737a32.3215,32.3215,0,0,1-2.24,5.8183A16.6522,16.6522,0,0,1,1000.3618,568.0889Z" transform="translate(-903.5 -483.5)" style="fill:#c5cf01"/><path d="M966.031,493.3494a6.5172,6.5172,0,0,1-4.3578,4.8617c-4.5924,1.5964-8.5659.4763-11.4295-3.4678-.2778-.3827-.8688-.8022-.3832-1.4393a55.0592,55.0592,0,0,1,8.6278-.8113A51.5652,51.5652,0,0,1,966.031,493.3494Z" transform="translate(-903.5 -483.5)" style="fill:#c5cf01"/><path d="M1004.8825,520.5809a23.1835,23.1835,0,0,1-4.9519-.2627,7.3727,7.3727,0,0,1-3.9837-11.9531c.1438-.1863.2682-.3875.4023-.5821A75.1753,75.1753,0,0,1,1004.8825,520.5809Z" transform="translate(-903.5 -483.5)" style="fill:#c5cf01"/><path d="M993.0059,578.0183l.2054-.1835Z" transform="translate(-903.5 -483.5)" style="fill:#e4e900"/><path d="M935.3888,530.0568a7.7893,7.7893,0,0,1-4.411,6.8191c-3.0649,1.6766-6.1694,2.1462-9.32.3469-2.0942-1.196-3.1005-3.2611-3.9721-5.4018a7.9646,7.9646,0,0,1-.5379-5.193,6.7405,6.7405,0,0,1,4.5039-4.7787c2.8548-1.0248,5.7891-1.4706,8.6211-.1547C933.9406,523.3989,935.1079,526.7009,935.3888,530.0568Zm-9.8533,4.0426c2.7625.0981,5.4643-1.7369,5.5149-3.7455.0817-3.2452-2.0518-5.4527-5.4326-5.5083-1.8-.0295-4.5064,1.3808-4.4394,3.8421C921.2371,530.8484,922.8941,534.3442,925.5355,534.0994Z" transform="translate(-903.5 -483.5)" style="fill:#780d1b"/><path d="M942.8642,545.6675c4.7558.2087,7.6615,5.1893,7.5846,9.556-.07,3.97-4.6322,7.8569-8.8852,7.4356-5.7258-.5671-8.41-3.9238-8.4131-9.354C933.1474,548.09,937.5794,546.3551,942.8642,545.6675Zm-1.207,12.3155c2.1223.0884,4.3867-1.6193,4.3077-3.4678-.126-2.9515-1.2964-4.8888-4.008-5.0344-1.8082-.0972-4.7042,2.2274-4.65,3.8173A4.5646,4.5646,0,0,0,941.6572,557.983Z" transform="translate(-903.5 -483.5)" style="fill:#780d1b"/><path d="M964.5643,582.1353a3.6776,3.6776,0,0,1-1.7326-.2809,1.4921,1.4921,0,0,1-.8257-2.064q1.4187-3.1083,2.9679-6.1566c.7128-1.3993,1.8646-1.4469,2.6837-.0854,1.1343,1.8851,2.1895,3.8195,3.2276,5.76.5594,1.0459.29,1.7387-.85,2.25-1.5948.7157-3.33.4045-4.9987.59A3.396,3.396,0,0,1,964.5643,582.1353Zm1.5747-3.4786c.4417-.152,1.3343.203,1.2822-.4777-.0432-.566-.4727-1.631-1.0689-1.6063-.5856.0243-.8484,1.0432-1.0068,1.6925C965.2094,578.8228,965.8247,578.5482,966.139,578.6567Z" transform="translate(-903.5 -483.5)" style="fill:#fefefe"/><path d="M925.5355,534.0994c-2.6414.2448-4.2984-3.251-4.3571-5.4117-.067-2.4613,2.64-3.8716,4.4394-3.8421,3.3808.0556,5.5143,2.2631,5.4326,5.5083C931,532.3625,928.298,534.1975,925.5355,534.0994Z" transform="translate(-903.5 -483.5)" style="fill:#fd2148"/><path d="M941.6572,557.983a4.5646,4.5646,0,0,1-4.35-4.6849c-.0543-1.59,2.8417-3.9145,4.65-3.8173,2.7116.1456,3.882,2.0829,4.008,5.0344C946.0439,556.3637,943.78,558.0714,941.6572,557.983Z" transform="translate(-903.5 -483.5)" style="fill:#fd2148"/><path d="M966.139,578.6567c-.3143-.1085-.93.1661-.7935-.3915.1584-.6493.4212-1.6682,1.0068-1.6925.5962-.0247,1.0257,1.04,1.0689,1.6063C967.4733,578.86,966.5807,578.5047,966.139,578.6567Z" transform="translate(-903.5 -483.5)" style="fill:#69cfcc"/></svg>