<svg id="ada0b6e9-c0f9-4e76-ac11-6981bfc1faef" data-name="b062ca7e-7309-4502-88e0-ee00220bdcbf" xmlns="http://www.w3.org/2000/svg" viewBox="0 0 113 113"><title>K&amp;amp;M_Logo</title><path d="M56.5,0A56.5,56.5,0,1,0,113,56.5,56.5,56.5,0,0,0,56.5,0ZM40.0493,86.5162a36.4134,36.4134,0,0,1-10.613-.2863,24.0332,24.0332,0,0,1-8.8491-4.0566,12.1849,12.1849,0,0,1-3.4939-2.7183A31.1688,31.1688,0,0,1,8.1991,67.1315a1.51,1.51,0,0,1-.0408-.4522A7.4735,7.4735,0,0,1,6.91,62.01c-.2866-.2308-.2561-.5688-.2661-.8752-.1552-4.9693-.4068-9.95.9723-14.8136a36.28,36.28,0,0,1,3.1062-7.1393,45.5164,45.5164,0,0,1,7.0109-9.8984,8.0471,8.0471,0,0,1,5.7536-2.6581A5.5456,5.5456,0,0,1,28.16,29.3224c2.4763,3.5436,4.5155,7.359,6.7981,11.0228,1.6443,2.6392,3.5147,5.14,5.1005,7.8124,2.9565,4.981,6.45,9.6136,9.4058,14.5822,1.8141,3.0491,3.8513,5.94,5.7433,8.93A40.0862,40.0862,0,0,1,58.26,76.3005l.0021.005q.0278.0508.0537.1024c.0463.0917.07.1879.1081.2814a3.7805,3.7805,0,0,1,.1446.3763c.0326.1133.0472.2276.0688.3419a3.7314,3.7314,0,0,1,.064.3818c.01.1174.0022.2331.0008.35-.0015.1252.0026.25-.0112.3739-.013.1162-.0424.2282-.066.3423-.0251.1217-.045.2437-.082.3622-.0345.11-.0843.2142-.1288.321a3.7029,3.7029,0,0,1-.15.3422c-.0553.1027-.1251.1964-.19.294a3.6961,3.6961,0,0,1-.213.3072c-.0767.0934-.1675.1751-.2537.2614a3.6593,3.6593,0,0,1-.267.258,3.77,3.77,0,0,1-.3155.2158c-.0889.0588-.1676.1279-.2629.18q-.0532.0291-.1072.0563a39.8761,39.8761,0,0,1-16.6054,5.0627ZM69.6772,100.724a14.09,14.09,0,0,1-1.8633,1.3253c-2.7651,1.6258-5.868,1.911-9.566-.3014-4.3521-2.6037-4.4664-8.4746-2.3864-12.0561a5.6875,5.6875,0,0,1,2.7637-2.4176,11.2273,11.2273,0,0,1,2.4658-.7112,17.7,17.7,0,0,1,1.9553-.1287c.16-.0025.32-.0129.4808-.011h.0005a8.9077,8.9077,0,0,1,7.2279,4.1844C72.7223,93.4168,72.24,98.5912,69.6772,100.724Zm35.475-38.7919c-.0122.0622-.0191.1251-.0317.1872l0,.0011c-.4925,1.1749-.0568,2.5517-.8,3.6707-.1709,1.95-1.1006,3.6806-1.6055,5.5338h0c.21,1.3573-.6489,2.4545-.9725,3.6737a32.3242,32.3242,0,0,1-2.24,5.8183,16.6563,16.6563,0,0,1-2.64,3.7719,5.0937,5.0937,0,0,1-1.5043,2.6531l-.0007,0v0l.0007,0a13.6117,13.6117,0,0,1-3.04,4.181l0,0h0c-.6949.9693-1.1167,2.1718-2.3141,2.7121h0l-.2914.2-.2054.1835c-1.5076,1.5733-4.4117,2.0165-6.8673,1.056a5.2079,5.2079,0,0,0-1.0052-.317,4.1787,4.1787,0,0,1-3.13-2.1217c-1.554-2.6191-3.19-5.2019-4.9791-7.6638-.8707-1.1978-1.3345-2.6159-2.2115-3.794A6.0975,6.0975,0,0,0,70.91,81.19c-.2293-.2605-.4415-.5342-.6438-.815a10.6225,10.6225,0,0,1-1.2514-2.2708l0,0A22.0625,22.0625,0,0,1,66.38,74.1872h0l-2.0275-3.0419v-.0005l0,0v0q-1.2448-2.1034-2.49-4.2068h0c-1.5828-1.854-2.7291-4.0089-4.1173-5.9979-2.1455-3.074-4.0481-6.3168-6.4088-9.2425v0a1.4358,1.4358,0,0,1-.1569-.4219,9.8657,9.8657,0,0,1-1.4893-2.09q-.2014-.3788-.37-.775a27.7385,27.7385,0,0,1-3.0826-4.4665l0,0a12.1338,12.1338,0,0,1-1.2887-1.853c-.1936-.3333-.3941-.6627-.5555-1.0136C43.1507,39.801,42.4573,38.13,41.3293,36.78c-1.7572-2.1029-3.083-4.5128-4.853-6.6121-1.1009-1.3059-1.9352-2.8342-2.9258-4.2368-.43-.6088-.9135-1.1528-1.3061-1.8169a6.2687,6.2687,0,0,1-.5107-4.5964,4.9683,4.9683,0,0,0,.2246-1.155,4.9051,4.9051,0,0,1,2.1457-4.3164h0a10.4741,10.4741,0,0,1,3.3736-1.7651v0c.6782-.9837,1.8718-1.0826,2.8368-1.4722a3.13,3.13,0,0,1,2.226-.467v.0005h0l0,0,3.82-.5375h0a55.0548,55.0548,0,0,1,8.6278-.8113,51.5549,51.5549,0,0,1,7.5427.8567v0h0v0a22.5344,22.5344,0,0,1,5.5533.5025h0a14.0741,14.0741,0,0,1,3.6362.8489v0h0v0A8.4663,8.4663,0,0,1,76.4178,12.62h0a26.9945,26.9945,0,0,1,6.2953,3.25,11.2016,11.2016,0,0,1,3.5954,2.474.6482.6482,0,0,1,.3244-.06c.3942.03.5214.5317.7359.7415.98.9585,2.3166,1.55,2.9725,2.84l0,0h0A8.42,8.42,0,0,1,92.85,24.2825a75.2256,75.2256,0,0,1,6.6474,9.438q.9851,1.6549,1.8851,3.36c.2437.6766.5869,1.3141.895,1.9652a7.0551,7.0551,0,0,1,.6906,2.0835h.0008a10.3357,10.3357,0,0,1,.91,2.683l0,0a.8011.8011,0,0,1,.43.6422c.1437,1.5441.6555,3.0335.6917,4.595h0a20.7934,20.7934,0,0,1,.5656,6.527h0A24.7168,24.7168,0,0,1,105.1522,61.9321Z" style="fill:#fff"/><path d="M33.8073,69.7981c-.0544-1.59,2.8413-3.9142,4.65-3.8173h0c-1.8082-.0973-4.7042,2.2274-4.65,3.8173a4.5645,4.5645,0,0,0,4.35,4.6849A4.5646,4.5646,0,0,1,33.8073,69.7981Z" style="fill:#fefefe"/><path d="M29.4368,86.23a24.0232,24.0232,0,0,1-8.8476-4.0561l0,0a12.1818,12.1818,0,0,1-3.4957-2.7189h0a12.1849,12.1849,0,0,0,3.4939,2.7183A24.0332,24.0332,0,0,0,29.4363,86.23a36.4134,36.4134,0,0,0,10.613.2863,39.8728,39.8728,0,0,0,12.682-3.1168A39.8728,39.8728,0,0,1,40.05,86.516,36.4127,36.4127,0,0,1,29.4368,86.23Z" style="fill:#fefefe"/><path d="M8.1588,66.6788c.4289-.9986,1.4372-1.0977,2.2658-1.26a9.1668,9.1668,0,0,1,8.6847,3.62A7.0171,7.0171,0,0,1,20.19,71.456a7.0166,7.0166,0,0,0-1.0807-2.4175,9.1674,9.1674,0,0,0-8.6847-3.62c-.8287.1624-1.837.2615-2.2658,1.26A7.4723,7.4723,0,0,1,6.91,62.01c-.2866-.2308-.2565-.5688-.2661-.8752-.1553-4.9693-.407-9.95.9722-14.8136a36.2885,36.2885,0,0,1,3.1062-7.1393,45.5158,45.5158,0,0,1,7.0109-9.8983,8.0451,8.0451,0,0,1,2.6038-1.9192,8.0462,8.0462,0,0,0-2.6042,1.9194,45.5164,45.5164,0,0,0-7.0109,9.8984,36.28,36.28,0,0,0-3.1062,7.1393c-1.3791,4.8635-1.1275,9.8443-.9723,14.8136.01.3064-.0205.6444.2661.8752a7.4735,7.4735,0,0,0,1.2488,4.669,1.51,1.51,0,0,0,.0408.4522,31.08,31.08,0,0,0,6.0718,9.63A31.0842,31.0842,0,0,1,8.2,67.1311,1.51,1.51,0,0,1,8.1588,66.6788Z" style="fill:#fefefe"/><path d="M38.0636,79.1591c-3.3573-.3325-5.6611-1.6306-7-3.7369,1.3385,2.1064,3.6422,3.4046,7,3.7371,4.253.4213,8.8152-3.4658,8.8852-7.4356h0C46.8788,75.6935,42.3166,79.58,38.0636,79.1591Z" style="fill:#fefefe"/><path d="M58.2484,101.7476c-4.3521-2.6037-4.4668-8.4747-2.3864-12.0561a5.6883,5.6883,0,0,1,2.7632-2.4173,5.6875,5.6875,0,0,0-2.7637,2.4176c-2.08,3.5815-1.9657,9.4524,2.3864,12.0561,3.698,2.2124,6.8009,1.9272,9.566.3014C65.049,103.6748,61.9462,103.96,58.2484,101.7476Z" style="fill:#fefefe"/><path d="M63.5271,86.4233c-.16-.0019-.32.0085-.4808.011.16-.0024.3207-.0128.4813-.0109Z" style="fill:#fefefe"/><path d="M58.3159,76.4079q-.0259-.0516-.0537-.1024a3.7031,3.7031,0,0,1,.1618.3838C58.3859,76.5958,58.3622,76.5,58.3159,76.4079Z" style="fill:#fefefe"/><path d="M27.4778,53.3759c-3.0649,1.6766-6.1694,2.1462-9.32.3469-2.0942-1.1959-3.1005-3.2611-3.9721-5.4018a7.9637,7.9637,0,0,1-.5379-5.1929,6.7384,6.7384,0,0,1,.2661-.8269,6.7342,6.7342,0,0,0-.2662.827,7.9652,7.9652,0,0,0,.5379,5.193c.8716,2.1407,1.8779,4.2058,3.9721,5.4018,3.1507,1.7993,6.2552,1.33,9.32-.3469a7.7894,7.7894,0,0,0,4.4111-6.8192A7.7894,7.7894,0,0,1,27.4778,53.3759Z" style="fill:#fefefe"/><path d="M26.69,43.5924a4.9443,4.9443,0,0,1,.5654,1.1651A4.9443,4.9443,0,0,0,26.69,43.5924Z" style="fill:#fefefe"/><path d="M27.2552,44.7575a5.785,5.785,0,0,1,.2743,1.3554A5.785,5.785,0,0,0,27.2552,44.7575Z" style="fill:#fefefe"/><path d="M22.1178,41.3456c-1.6875-.0276-4.1717,1.21-4.42,3.393C17.9462,42.5557,20.4309,41.318,22.1178,41.3456Z" style="fill:#fefefe"/><path d="M29.6505,69.8053q0,.6.0482,1.1627-.0469-.5636-.0482-1.1628Z" style="fill:#fefefe"/><path d="M18.3192,62.4625c3.0946,1.8558,5.3738,4.4116,5.8354,8.1448a21,21,0,0,1,.1657,2.4154,21.0065,21.0065,0,0,0-.1657-2.4158c-.4616-3.7332-2.7408-6.289-5.8354-8.1448-3.3527-2.01-6.8514-2.6472-10.4932-.6657a3.5183,3.5183,0,0,1-.916.2136,3.5145,3.5145,0,0,0,.916-.2132C11.4678,59.8153,14.966,60.452,18.3192,62.4625Z" style="fill:#fefefe"/><path d="M105.1205,62.1193c.0126-.0621.0195-.125.0317-.1872-.0122.0621-.0191.125-.0317.187Z" style="fill:#fefefe"/><path d="M92.8489,24.2833c-.1341.1946-.2585.3958-.4023.5821a7.4038,7.4038,0,0,0-.4994.6667,7.3605,7.3605,0,0,1,.5-.667c.1438-.1863.2682-.3876.4023-.5821a75.1734,75.1734,0,0,1,6.6482,9.4375,75.2256,75.2256,0,0,0-6.6474-9.438,8.42,8.42,0,0,0-2.5086-2.4173h0l0,0A8.4039,8.4039,0,0,1,92.8489,24.2833Z" style="fill:#fefefe"/><path d="M82.0184,16.7551A11.837,11.837,0,0,0,80.22,18.4573a15.7605,15.7605,0,0,0-3.6173,12.2813,25.1184,25.1184,0,0,0,.8006,4.2064,25.1151,25.1151,0,0,1-.8-4.2063A15.76,15.76,0,0,1,80.22,18.4574a11.8274,11.8274,0,0,1,1.7986-1.7022c.3174-.255.6466-.4418.6942-.8852a11.165,11.165,0,0,1,3.595,2.4744l0,0a.6484.6484,0,0,1,.325-.0608.6482.6482,0,0,0-.3244.06,11.2016,11.2016,0,0,0-3.5954-2.474A25.7779,25.7779,0,0,0,80.04,14.23a25.743,25.743,0,0,1,2.673,1.64C82.665,16.3133,82.3359,16.5,82.0184,16.7551Z" style="fill:#fefefe"/><path d="M57.8153,25.0382c-4.8215.441-9.3-.4054-13.0179-3.756,3.7181,3.3507,8.1963,4.1972,13.0182,3.7562a12.2323,12.2323,0,0,0,7.9055-4.2262,25.6386,25.6386,0,0,0,6-9.611h0a25.637,25.637,0,0,1-6,9.6109A12.2323,12.2323,0,0,1,57.8153,25.0382Z" style="fill:#fefefe"/><path d="M58.1732,14.7111a12.287,12.287,0,0,1-3.1206.6734,12.2834,12.2834,0,0,0,3.1207-.6734A6.5169,6.5169,0,0,0,62.531,9.85h0A6.5174,6.5174,0,0,1,58.1732,14.7111Z" style="fill:#fefefe"/><path d="M96.4306,36.8182c-.0131-.003-.0253-.0078-.0384-.0109.013.0031.0252.0083.0381.0112a23.1886,23.1886,0,0,0,4.9519.2627c.2438.6764.587,1.3138.8953,1.9649-.3081-.6511-.6513-1.2886-.895-1.9652A23.1886,23.1886,0,0,1,96.4306,36.8182Z" style="fill:#fefefe"/><path d="M93.418,35.34c-.05-.04-.1018-.0781-.15-.12.0136.0117.0251.0248.0389.0364C93.3421,35.2865,93.3819,35.3105,93.418,35.34Z" style="fill:#fefefe"/><path d="M47.3107,17.4718a12.7406,12.7406,0,0,1-4.77-7.13h0A12.7406,12.7406,0,0,0,47.3107,17.4718Z" style="fill:#fefefe"/><path d="M73.5246,85.4729c-.8707-1.1981-1.3347-2.6165-2.212-3.7947.877,1.1781,1.3408,2.5962,2.2115,3.794,1.7891,2.4619,3.4251,5.0447,4.9791,7.6638a4.1991,4.1991,0,0,0,.2659.4194,4.1961,4.1961,0,0,1-.2654-.4187C76.95,90.5176,75.3137,87.9348,73.5246,85.4729Z" style="fill:#fefefe"/><path d="M41.3292,36.7791c-1.7571-2.1029-3.0833-4.5128-4.853-6.6121-1.1009-1.3059-1.9351-2.8342-2.9257-4.2368-.43-.6088-.9136-1.1528-1.3061-1.8169a6.2662,6.2662,0,0,1-.6947-2.2489,6.2682,6.2682,0,0,0,.6947,2.2493c.3926.6641.8761,1.2081,1.3061,1.8169.9906,1.4026,1.8249,2.9309,2.9258,4.2368,1.77,2.0993,3.0958,4.5092,4.853,6.6121,1.128,1.35,1.8214,3.0215,3.0636,4.2976.1614.3509.3619.68.5555,1.0136-.1936-.3334-.3942-.6629-.5556-1.014C43.1506,39.8006,42.4572,38.1292,41.3292,36.7791Z" style="fill:#fefefe"/><path d="M90.7113,83.4063a10.71,10.71,0,0,1-1.7421-9.7432,10.0884,10.0884,0,0,1,.4709-1.2484,10.0817,10.0817,0,0,0-.471,1.2486,10.71,10.71,0,0,0,1.7421,9.7433,9.5832,9.5832,0,0,0,4.6456,3.8353v0A9.5827,9.5827,0,0,1,90.7113,83.4063Z" style="fill:#fefefe"/><path d="M73.5314,72.8809c2.1884-3.4575,4.2934-6.8822,5.0512-11.05a19.1077,19.1077,0,0,0-1.13-11.1258,24.79,24.79,0,0,0-3.1563-4.9357A21.4628,21.4628,0,0,0,62.7894,37.584a20.4213,20.4213,0,0,0-7.133-.9124,20.4212,20.4212,0,0,1,7.1322.9124A21.4631,21.4631,0,0,1,74.2955,45.77a24.7858,24.7858,0,0,1,3.1564,4.9357,19.1075,19.1075,0,0,1,1.13,11.1258c-.7579,4.1674-2.8628,7.5921-5.0513,11.05a21.6426,21.6426,0,0,1-4.5163,5.223,10.6225,10.6225,0,0,0,1.2514,2.2708,10.6279,10.6279,0,0,1-1.2511-2.27A21.6468,21.6468,0,0,0,73.5314,72.8809Z" style="fill:#fefefe"/><path d="M96.317,72.2659a5.2462,5.2462,0,0,1,.7167-.1945,18.8568,18.8568,0,0,1,5.6807-.7464h0a18.8589,18.8589,0,0,0-5.6806.7464A5.2623,5.2623,0,0,0,96.317,72.2659Z" style="fill:#fefefe"/><path d="M95.0369,72.9227a5.2118,5.2118,0,0,1,1.28-.6568A5.2153,5.2153,0,0,0,95.0369,72.9227Z" style="fill:#fefefe"/><path d="M89.2449,88.3754a22.9545,22.9545,0,0,1-4.4523-10.79,12.0076,12.0076,0,0,1,5.5339-11.94,26.4547,26.4547,0,0,1,6.0019-3.1863,22.0594,22.0594,0,0,1,7.9829-1.2506,1.04,1.04,0,0,1,.4021.0786,1.0388,1.0388,0,0,0-.4025-.0788,22.06,22.06,0,0,0-7.9829,1.2506,26.4568,26.4568,0,0,0-6.0019,3.1863,12.0081,12.0081,0,0,0-5.5339,11.94,22.9545,22.9545,0,0,0,4.4523,10.7905,8.6842,8.6842,0,0,0,3.0723,3.0478h0A8.6847,8.6847,0,0,1,89.2449,88.3754Z" style="fill:#fefefe"/><path d="M46.2374,43.9435A27.7385,27.7385,0,0,0,49.32,48.41a27.7379,27.7379,0,0,1-3.0825-4.4665Z" style="fill:#fefefe"/><path d="M68.0176,65.4754a11.9786,11.9786,0,0,0,.6372-9.5772,11.979,11.979,0,0,1-.6374,9.5765,17.1835,17.1835,0,0,1-3.2869,4.848,1.0024,1.0024,0,0,0-.3783.8216v0l0,0a1.0023,1.0023,0,0,1,.3782-.8213A17.1835,17.1835,0,0,0,68.0176,65.4754Z" style="fill:#fefefe"/><path d="M53.763,51.1212c4.1167-.4133,7.1225,1.513,9.4868,4.6193a8.3327,8.3327,0,0,1,.8825,1.4268A8.34,8.34,0,0,0,63.25,55.74c-2.3644-3.1064-5.37-5.0326-9.4869-4.6194-.8577.0861-1.7224.1046-2.5838.1542a9.8693,9.8693,0,0,1-1.4893-2.09,9.8657,9.8657,0,0,0,1.4893,2.09,1.4358,1.4358,0,0,0,.1569.4219,1.4382,1.4382,0,0,1-.1568-.4217C52.0406,51.2253,52.9052,51.2072,53.763,51.1212Z" style="fill:#fefefe"/><path d="M80.5877,28.345A18.9939,18.9939,0,0,0,91.834,45.4689a7.6908,7.6908,0,0,0,3.9858.8853,27.7783,27.7783,0,0,0,4.5161-.782,8.3251,8.3251,0,0,0,2.849-.93,8.3255,8.3255,0,0,1-2.8485.9294,27.7814,27.7814,0,0,1-4.5162.782,7.691,7.691,0,0,1-3.9858-.8853A18.9941,18.9941,0,0,1,80.5881,28.3447,11.5064,11.5064,0,0,1,85.04,19.1993,11.5061,11.5061,0,0,0,80.5877,28.345Z" style="fill:#fefefe"/><path d="M104.1764,44.0781a.7993.7993,0,0,0-.2975-.2653h0A.8009.8009,0,0,1,104.1764,44.0781Z" style="fill:#fefefe"/><path d="M90.9739,31.6255a7.3336,7.3336,0,0,0,1.18,2.3929A7.3979,7.3979,0,0,1,90.9739,31.6255Z" style="fill:#fefefe"/><path d="M56.7619,81.3972c.0953-.052.174-.1211.2629-.18a3.77,3.77,0,0,0,.3155-.2158,3.6593,3.6593,0,0,0,.267-.258c.0862-.0863.177-.168.2537-.2614a3.6961,3.6961,0,0,0,.213-.3072c.0649-.0976.1347-.1913.19-.294a3.7029,3.7029,0,0,0,.15-.3422c.0445-.1068.0943-.2106.1288-.321.037-.1185.0569-.24.082-.3622.0236-.1141.053-.2261.066-.3423.0138-.1238.01-.2487.0112-.3739.0014-.1169.0089-.2326-.0008-.35a3.7314,3.7314,0,0,0-.064-.3818c-.0216-.1143-.0362-.2286-.0688-.3419a3.7805,3.7805,0,0,0-.1446-.3763,3.7031,3.7031,0,0,0-.1618-.3838l-.0021-.005A40.0862,40.0862,0,0,0,55.2074,71.67c-1.892-2.99-3.9292-5.8809-5.7433-8.93-2.9563-4.9686-6.4493-9.6012-9.4058-14.5822-1.5858-2.6724-3.4562-5.1732-5.1005-7.8124C32.6752,36.6814,30.636,32.866,28.16,29.3224a5.5456,5.5456,0,0,0-4.6733-2.6967,8.046,8.046,0,0,0-5.7532,2.6579,45.5158,45.5158,0,0,0-7.0109,9.8983,36.2885,36.2885,0,0,0-3.1062,7.1393c-1.3792,4.8636-1.1275,9.8443-.9722,14.8136.01.3064-.0205.6444.2661.8752a3.5183,3.5183,0,0,0,.916-.2136c3.6418-1.9815,7.1405-1.3443,10.4932.6657,3.0946,1.8558,5.3738,4.4116,5.8354,8.1448a21.0065,21.0065,0,0,1,.1657,2.4158,11.6343,11.6343,0,0,1-3.7311,9.1509A24.0232,24.0232,0,0,0,29.4368,86.23,36.4127,36.4127,0,0,0,40.05,86.516a39.8737,39.8737,0,0,0,16.605-5.0625Q56.7087,81.4262,56.7619,81.3972ZM27.4777,53.3761c-3.0648,1.6769-6.1693,2.1462-9.32.3469-2.0942-1.196-3.1-3.2611-3.9721-5.4018a7.9652,7.9652,0,0,1-.5379-5.193,6.7392,6.7392,0,0,1,4.504-4.7788c2.8548-1.0248,5.7891-1.4706,8.6211-.1548,3.6678,1.7043,4.8351,5.0063,5.116,8.3622h0A7.7894,7.7894,0,0,1,27.4777,53.3761ZM46.9488,71.7236h0c-.07,3.97-4.6322,7.8569-8.8852,7.4356-3.3574-.3325-5.6611-1.6307-7-3.7371a7.9194,7.9194,0,0,1-.6914-1.3669,9.2892,9.2892,0,0,1-.33-1.025q-.1233-.4687-.2073-.9687-.0885-.5307-.1362-1.0936t-.0482-1.1627h0c-.0031-5.2151,4.4289-6.95,9.7137-7.6376a6.7394,6.7394,0,0,1,1.6945.2914,6.8316,6.8316,0,0,1,1.5078.6757,7.6261,7.6261,0,0,1,1.3078.9968,10.503,10.503,0,0,1,3.0745,7.5921Z" style="fill:#fd2148"/><path d="M86.7127,91.3418a25.2763,25.2763,0,0,1-5.6882-11.7543c-.6726-3.6245-.8542-7.2953.5787-10.7978a18.7123,18.7123,0,0,1,5.6315-7.5871A26.4494,26.4494,0,0,1,93.47,57.44a24.4065,24.4065,0,0,1,12.0958-1.863v0h0a20.7934,20.7934,0,0,0-.5656-6.527,28.423,28.423,0,0,1-8.907,2.0294,11.855,11.855,0,0,1-5.3026-.9167,18.8666,18.8666,0,0,1-7.832-5.1086,25.3194,25.3194,0,0,1-6.3568-14.3155A15.7605,15.7605,0,0,1,80.22,18.4573a11.837,11.837,0,0,1,1.7986-1.7022c.3175-.2552.6466-.4418.6942-.8852a26.9523,26.9523,0,0,0-6.2946-3.25h0c-.5713-.0709-.8684.0715-1.0873.7236a33.2928,33.2928,0,0,1-2.039,5.1528c-3.2,5.9759-7.4677,10.8585-14.6744,11.6049-6.4365.6667-12.2941-.8943-17.0014-5.7669a40.162,40.162,0,0,1-6.1776-7.6991c-.061-.1056-.1161-.2142-.1673-.3247-.2049-.442-.3472-.9148-.5513-1.3553a2.9728,2.9728,0,0,0-.6157-.9093h0a4.9051,4.9051,0,0,0-2.1457,4.3164,4.9683,4.9683,0,0,1-.2246,1.155,6.2674,6.2674,0,0,0,.5107,4.596c.3925.6641.8761,1.2081,1.3061,1.8169.9906,1.4026,1.8248,2.9309,2.9257,4.2368,1.77,2.0993,3.0959,4.5092,4.853,6.6121,1.128,1.35,1.8214,3.0215,3.0636,4.2976.3418-.326.7027-.6278,1.072-.9182a14.7787,14.7787,0,0,1,5.9086-2.813,20.4258,20.4258,0,0,1,11.416.2385,21.4628,21.4628,0,0,1,11.5069,8.1854,24.79,24.79,0,0,1,3.1563,4.9357,19.1077,19.1077,0,0,1,1.13,11.1258c-.7578,4.1678-2.8628,7.5925-5.0512,11.05a21.6468,21.6468,0,0,1-4.5168,5.2234,10.6279,10.6279,0,0,0,1.2511,2.27c.2023.2808.4145.5545.6438.815a6.0975,6.0975,0,0,1,.4031.4884c.8773,1.1782,1.3413,2.5966,2.212,3.7947,1.7891,2.4619,3.4251,5.0447,4.9791,7.6638a4.1771,4.1771,0,0,0,3.13,2.121,5.2079,5.2079,0,0,1,1.0052.317c2.4556.96,5.36.5173,6.8673-1.056l.2054-.1835.2914-.2h0A9.1239,9.1239,0,0,1,86.7127,91.3418Z" style="fill:#c5cf01"/><path d="M73.5306,72.881c2.1885-3.4579,4.2934-6.8826,5.0513-11.05a19.1075,19.1075,0,0,0-1.13-11.1258A24.7858,24.7858,0,0,0,74.2955,45.77,21.4631,21.4631,0,0,0,62.7886,37.584a20.4234,20.4234,0,0,0-11.4152-.2385,14.7787,14.7787,0,0,0-5.9086,2.813c-.3693.29-.73.5922-1.072.9182.1614.3511.362.6806.5556,1.014a12.1338,12.1338,0,0,0,1.2887,1.853l0,0h0l0,0a17.1479,17.1479,0,0,1,7.6083-2.2359A18.97,18.97,0,0,1,63.7,43.419a20.7955,20.7955,0,0,1,8.7833,8.276A12.5352,12.5352,0,0,1,74.48,60.03a20.0486,20.0486,0,0,1-3.5477,8.891,47.5522,47.5522,0,0,1-3.7565,4.8238,1.0086,1.0086,0,0,1-.7959.4424h0a22.0625,22.0625,0,0,0,2.6343,3.9172l0,0A21.6426,21.6426,0,0,0,73.5306,72.881Z" style="fill:#e4e900"/><path d="M105.5662,55.5768A24.4065,24.4065,0,0,0,93.47,57.44a26.4494,26.4494,0,0,0-6.2357,3.7628A18.7123,18.7123,0,0,0,81.6032,68.79c-1.4329,3.5025-1.2513,7.1733-.5787,10.7978a25.2763,25.2763,0,0,0,5.6882,11.7543,9.1239,9.1239,0,0,0,3.29,2.7933h0c1.1974-.54,1.6192-1.7428,2.3141-2.7121h0a8.6842,8.6842,0,0,1-3.0723-3.0478,22.9545,22.9545,0,0,1-4.4523-10.7905,12.0081,12.0081,0,0,1,5.5339-11.94,26.4568,26.4568,0,0,1,6.0019-3.1863,22.06,22.06,0,0,1,7.9829-1.2506,1.0388,1.0388,0,0,1,.4025.0788c.3114.14.375.4538.4071.8325.0126-.062.0195-.1249.0317-.187a24.7168,24.7168,0,0,0,.414-6.3551Z" style="fill:#e4e900"/><path d="M35.2711,16.3106c.0512.11.1063.2191.1673.3247a40.162,40.162,0,0,0,6.1776,7.6991c4.7073,4.8726,10.5649,6.4336,17.0014,5.7669,7.2067-.7464,11.4744-5.629,14.6744-11.6049a33.2928,33.2928,0,0,0,2.039-5.1528c.2189-.6521.516-.7945,1.0873-.7236h0a8.4663,8.4663,0,0,0-4.6967-1.4189v0a25.6386,25.6386,0,0,1-6,9.611,12.2323,12.2323,0,0,1-7.9055,4.2262c-4.8219.441-9.3-.4055-13.0182-3.7562-.1853-.1671-.3706-.3344-.5521-.514-1.3366-1.323-2.7572-2.5651-4.0576-3.9356a36.3954,36.3954,0,0,1-2.41-3.1974,1.8205,1.8205,0,0,1-.3-1.3543,10.4741,10.4741,0,0,0-3.3736,1.7651,2.9728,2.9728,0,0,1,.6157.9093C34.9239,15.3958,35.0662,15.8686,35.2711,16.3106Z" style="fill:#e4e900"/><path d="M67.1758,73.7448a47.5522,47.5522,0,0,0,3.7565-4.8238A20.0486,20.0486,0,0,0,74.48,60.03a12.5352,12.5352,0,0,0-1.9971-8.335A20.7955,20.7955,0,0,0,63.7,43.419a18.97,18.97,0,0,0-9.854-1.7118,17.1479,17.1479,0,0,0-7.6083,2.2359l0,0A27.7379,27.7379,0,0,0,49.32,48.41a9.2748,9.2748,0,0,1,5.1613-1.7317,13.1555,13.1555,0,0,1,12.6247,6.281,11.9763,11.9763,0,0,1,.9116,12.5161,17.1835,17.1835,0,0,1-3.2869,4.848,1.0023,1.0023,0,0,0-.3782.8213v.0005L66.38,74.1871h0A1.0086,1.0086,0,0,0,67.1758,73.7448Z" style="fill:#c5cf01"/><path d="M103.1849,44.6425a8.3251,8.3251,0,0,1-2.849.93,27.7783,27.7783,0,0,1-4.5161.782,7.6908,7.6908,0,0,1-3.9858-.8853A18.9939,18.9939,0,0,1,80.5877,28.345a11.5016,11.5016,0,0,1,5.72-10.0006,11.165,11.165,0,0,0-3.595-2.4744c-.0476.4434-.3768.63-.6942.8852A11.8274,11.8274,0,0,0,80.22,18.4574a15.76,15.76,0,0,0-3.6173,12.2813,25.1331,25.1331,0,0,0,6.3567,14.3154,18.8666,18.8666,0,0,0,7.832,5.1086,11.855,11.855,0,0,0,5.3026.9167,28.423,28.423,0,0,0,8.907-2.0294h0c-.0362-1.5615-.548-3.0509-.6917-4.595a.8005.8005,0,0,0-.43-.6421A2.4281,2.4281,0,0,1,103.1849,44.6425Z" style="fill:#e4e900"/><path d="M86.3077,18.3444a11.5007,11.5007,0,0,0-5.72,10A18.9941,18.9941,0,0,0,91.8344,45.4686a7.691,7.691,0,0,0,3.9858.8853,27.7814,27.7814,0,0,0,4.5162-.782,8.3255,8.3255,0,0,0,2.8485-.9294,2.4281,2.4281,0,0,0,.6939-.83h0l0,0a10.3357,10.3357,0,0,0-.91-2.683h-.0008v0a12.4043,12.4043,0,0,1-15.26-7.6378,10.4767,10.4767,0,0,1,2.18-11.0834c.1592-.1735.3019-.3621.4526-.5434h0l0,0,0,0c-.6559-1.29-1.9925-1.8815-2.9725-2.84-.2145-.21-.3417-.7113-.7359-.7415a.6484.6484,0,0,0-.325.0608Z" style="fill:#c5cf01"/><path d="M37.7772,13.6352a36.3954,36.3954,0,0,0,2.41,3.1974c1.3,1.37,2.721,2.6126,4.0576,3.9356.1815.18.3668.3469.5521.514,3.7184,3.3506,8.1964,4.197,13.0179,3.756a12.2323,12.2323,0,0,0,7.9055-4.2262,25.637,25.637,0,0,0,6-9.6109v0a14.0741,14.0741,0,0,0-3.6362-.8489h0c-.9631.2062-1.0527,1.1471-1.3007,1.7968a11.3434,11.3434,0,0,1-8.8672,7.4688,13.4516,13.4516,0,0,1-10.6062-2.1458,12.7406,12.7406,0,0,1-4.77-7.13v-.0005a3.13,3.13,0,0,0-2.226.467c-.965.39-2.1586.4885-2.8368,1.4722v0A1.8205,1.8205,0,0,0,37.7772,13.6352Z" style="fill:#c5cf01"/><path d="M63.5276,86.4234c-.1606-.0019-.3208.0085-.4813.0109a17.7,17.7,0,0,0-1.9553.1287,11.2273,11.2273,0,0,0-2.4658.7112,5.6883,5.6883,0,0,0-2.7632,2.4173c-2.08,3.5814-1.9657,9.4524,2.3864,12.0561,3.6978,2.2122,6.8006,1.9272,9.5655.3017a14.09,14.09,0,0,0,1.8633-1.3253c2.5627-2.1328,3.0451-7.3072,1.0783-10.1162A8.9077,8.9077,0,0,0,63.5276,86.4234ZM66.535,98.059c-1.5948.7154-3.33.4041-4.9987.59-.0387.0016-.0773-.004-.116-.0038a3.3821,3.3821,0,0,1-.356-.01,3.83,3.83,0,0,1-1.7328-.28,1.4872,1.4872,0,0,1-.151-.0647c-.0224-.0111-.0405-.0269-.0622-.039-.0424-.0236-.0826-.0493-.122-.0766a1.5114,1.5114,0,0,1-.1222-.093c-.0347-.03-.067-.0613-.0987-.094a1.4835,1.4835,0,0,1-.1027-.1162c-.0272-.0347-.0517-.0706-.0757-.1075a1.4975,1.4975,0,0,1-.078-.1328c-.02-.04-.0377-.08-.0544-.1214a1.4994,1.4994,0,0,1-.05-.1418c-.0128-.044-.0225-.0882-.0313-.1334a1.467,1.467,0,0,1-.0217-.1466c-.0043-.0464-.0054-.0926-.0052-.14a1.46,1.46,0,0,1,.0073-.15c.0049-.0465.0129-.0924.0223-.1389a1.4833,1.4833,0,0,1,.0385-.1516c.0069-.022.0089-.0443.0169-.0662a1.5084,1.5084,0,0,1,.0647-.1509c.0295-.0646.0609-.1283.09-.1928q1.327-2.9039,2.771-5.7488c.0362-.0713.07-.1437.1065-.215.7128-1.3993,1.8646-1.4469,2.6837-.0854,1.1343,1.8851,2.1895,3.82,3.2276,5.76a2.3492,2.3492,0,0,1,.2635.7211C67.7557,97.19,67.39,97.6752,66.535,98.059Z" style="fill:#69cfcc"/><path d="M104.7134,61.2866a1.04,1.04,0,0,0-.4021-.0786,22.0594,22.0594,0,0,0-7.9829,1.2506,26.4547,26.4547,0,0,0-6.0019,3.1863,12.0076,12.0076,0,0,0-5.5339,11.94,22.9545,22.9545,0,0,0,4.4523,10.79,8.6847,8.6847,0,0,0,3.0719,3.0475l0,0a13.6117,13.6117,0,0,0,3.04-4.181l-.0007,0a9.5832,9.5832,0,0,1-4.6456-3.8353,10.71,10.71,0,0,1-1.7421-9.7433,10.072,10.072,0,0,1,7.33-6.8811,27.4029,27.4029,0,0,1,8.0211-.9911c.7436-1.119.3079-2.4958.8-3.6707l0-.0011v0C105.0884,61.74,105.0248,61.4269,104.7134,61.2866Z" style="fill:#c5cf01"/><path d="M68.0174,65.4747a11.9751,11.9751,0,0,0-.9114-12.5154,13.1555,13.1555,0,0,0-12.6247-6.281A9.2748,9.2748,0,0,0,49.32,48.41q.1681.396.37.775a9.8693,9.8693,0,0,0,1.4893,2.09c.8614-.05,1.7261-.0681,2.5838-.1542,4.1169-.4132,7.1225,1.513,9.4869,4.6194a8.34,8.34,0,0,1,.8825,1.427,7.03,7.03,0,0,1,.5125,1.4371,9.1082,9.1082,0,0,1-1.3866,6.64c-.3607.6314-.6329,1.3767-1.3959,1.6937q1.245,2.1034,2.49,4.2068v0a1.0024,1.0024,0,0,1,.3783-.8216A17.1835,17.1835,0,0,0,68.0174,65.4747Z" style="fill:#e4e900"/><path d="M10.4246,65.4185a9.1674,9.1674,0,0,1,8.6847,3.62A7.0166,7.0166,0,0,1,20.19,71.456a8.0809,8.0809,0,0,1-2.2537,7.1722c-.2631.2917-.5609.552-.843.8267a12.1818,12.1818,0,0,0,3.4957,2.7189l0,0A11.6343,11.6343,0,0,0,24.32,73.0227a21,21,0,0,0-.1657-2.4154c-.4616-3.7332-2.7408-6.289-5.8354-8.1448-3.3532-2.0105-6.8514-2.6472-10.4932-.6657a3.5145,3.5145,0,0,1-.916.2132,7.4723,7.4723,0,0,0,1.2488,4.6685C8.5876,65.68,9.5959,65.5809,10.4246,65.4185Z" style="fill:#780d1b"/><path d="M89.44,72.4147a10.0884,10.0884,0,0,0-.4709,1.2484,10.71,10.71,0,0,0,1.7421,9.7432,9.5827,9.5827,0,0,0,4.6456,3.8353l.0007,0a5.0937,5.0937,0,0,0,1.5043-2.6531h0c-.7424-.7965-1.5213-1.5628-2.2189-2.3971a7.8133,7.8133,0,0,1-1.8151-4.5164,5.237,5.237,0,0,1,4.206-5.6041,18.8589,18.8589,0,0,1,5.6806-.7464h0c.5049-1.8532,1.4346-3.5838,1.6055-5.5338a27.4029,27.4029,0,0,0-8.0211.9911A10.0754,10.0754,0,0,0,89.44,72.4147Z" style="fill:#e4e900"/><path d="M47.3107,17.4718a13.4516,13.4516,0,0,0,10.6062,2.1458,11.3434,11.3434,0,0,0,8.8672-7.4688c.248-.65.3376-1.5906,1.3007-1.7968h0a22.5344,22.5344,0,0,0-5.5533-.5025v0a6.5169,6.5169,0,0,1-4.3577,4.8613,12.2834,12.2834,0,0,1-3.1207.6734,9.7987,9.7987,0,0,1-.9883.0241,9.1569,9.1569,0,0,1-7.3206-4.1653c-.2778-.3827-.8688-.8021-.3832-1.4393l-3.82.5375,0,0A12.7406,12.7406,0,0,0,47.3107,17.4718Z" style="fill:#e4e900"/><path d="M63.2582,65.244a9.1082,9.1082,0,0,0,1.3866-6.64,7.03,7.03,0,0,0-.5125-1.4371,8.3327,8.3327,0,0,0-.8825-1.4268c-2.3643-3.1063-5.37-5.0326-9.4868-4.6193-.8578.086-1.7224.1041-2.5838.1541a1.4382,1.4382,0,0,0,.1568.4217v0c2.3607,2.9257,4.2633,6.1685,6.4088,9.2425,1.3882,1.989,2.5345,4.1439,4.1173,5.9979h0C62.6253,66.6207,62.8975,65.8754,63.2582,65.244Z" style="fill:#c5cf01"/><path d="M96.43,36.8185c-.0129-.0029-.0251-.0081-.0381-.0112a7.45,7.45,0,0,1-.757-.2213c-.0729-.0255-.143-.0571-.215-.0849-.1889-.0727-.3745-.15-.5544-.2371-.0753-.0363-.1485-.0758-.2225-.1147q-.2637-.1386-.5128-.296c-.0677-.0428-.1351-.0855-.2014-.1306-.1768-.12-.3466-.2485-.5111-.3829-.0361-.0293-.0759-.0533-.1114-.0834-.0138-.0116-.0253-.0247-.0389-.0364-.1186-.1022-.23-.2111-.3416-.32-.0669-.0655-.1373-.1278-.2016-.1958-.08-.0843-.1527-.1743-.2284-.2622-.0859-.0994-.1747-.1968-.2546-.3-.0309-.04-.0574-.083-.0875-.1236a7.2738,7.2738,0,0,1-1.4249-3.7448c-.0011-.0121-.0036-.024-.0046-.0361-.0132-.16-.0142-.3218-.0169-.4835-.0012-.0807-.0079-.1606-.0065-.2416.0019-.1114.0134-.2236.02-.3355.0082-.1348.014-.27.03-.4041.0093-.0786.0255-.1573.0374-.236.025-.1681.0515-.3359.0883-.5024.0034-.0152.0045-.03.008-.0456.009-.0394.0243-.0768.0339-.1159.0526-.2149.1143-.4275.1866-.6382.0242-.07.05-.1391.0766-.2085q.1078-.2855.2408-.5634c.0335-.07.0658-.14.1015-.2094.0953-.1845.2011-.3648.3133-.5429.0372-.0592.0708-.12.11-.1784a7.4038,7.4038,0,0,1,.4994-.6667c.1438-.1863.2682-.3875.4023-.5821a8.4039,8.4039,0,0,0-2.508-2.4178h0c-.1507.1813-.2934.37-.4526.5434a10.4767,10.4767,0,0,0-2.18,11.0834,12.4043,12.4043,0,0,0,15.26,7.6378v0a7.0551,7.0551,0,0,0-.6906-2.0835c-.3083-.6511-.6515-1.2885-.8953-1.9649A23.1886,23.1886,0,0,1,96.43,36.8185Z" style="fill:#e4e900"/><path d="M17.9363,78.6282A8.0809,8.0809,0,0,0,20.19,71.456a7.0171,7.0171,0,0,0-1.0807-2.4172,9.1668,9.1668,0,0,0-8.6847-3.62c-.8286.1623-1.8369.2614-2.2658,1.26a1.51,1.51,0,0,0,.0412.4523A31.1578,31.1578,0,0,0,17.0933,79.455h0C17.3754,79.18,17.6732,78.92,17.9363,78.6282Z" style="fill:#fd2148"/><path d="M96.317,72.2659a5.2412,5.2412,0,0,0-3.4892,5.4095,7.8133,7.8133,0,0,0,1.8151,4.5164c.6976.8343,1.4765,1.6006,2.2189,2.3971h0a16.6563,16.6563,0,0,0,2.64-3.7719,32.3242,32.3242,0,0,0,2.24-5.8183c.3236-1.2192,1.1825-2.3164.9725-3.6737h0a18.8568,18.8568,0,0,0-5.6807.7464A5.2462,5.2462,0,0,0,96.317,72.2659Z" style="fill:#c5cf01"/><path d="M46.7437,11.2433a9.1569,9.1569,0,0,0,7.3206,4.1653,9.7987,9.7987,0,0,0,.9883-.0241,12.287,12.287,0,0,0,3.1206-.6734A6.5174,6.5174,0,0,0,62.5309,9.85v0a51.5549,51.5549,0,0,0-7.5427-.8567,55.0548,55.0548,0,0,0-8.6278.8113h0C45.8749,10.4412,46.4659,10.8606,46.7437,11.2433Z" style="fill:#c5cf01"/><path d="M92.4469,24.8651a7.3605,7.3605,0,0,0-.5.667c-.0389.0582-.0725.1192-.11.1784-.1122.1781-.218.3584-.3133.5429-.0357.069-.068.1392-.1015.2094q-.1328.2782-.2408.5634c-.0262.0694-.0524.1383-.0766.2085-.0723.2107-.134.4233-.1866.6382-.01.0391-.0249.0765-.0339.1159-.0035.0152-.0046.03-.008.0456-.0368.1665-.0633.3343-.0883.5024-.0119.0787-.0281.1574-.0374.236-.0156.1344-.0214.2693-.03.4041-.007.1119-.0185.2241-.02.3355-.0014.081.0053.1609.0065.2416.0027.1617.0037.3236.0169.4835.001.0121.0035.024.0046.0361a7.2738,7.2738,0,0,0,1.4249,3.7448c.03.0406.0566.0837.0875.1236.08.1029.1687.2.2546.3.0757.0879.1486.1779.2284.2622.0643.068.1347.13.2016.1958.1116.1092.223.2181.3416.32.0485.0417.1006.0793.15.12.1645.1344.3343.2626.5111.3829.0663.0451.1337.0878.2014.1306q.2493.1579.5128.296c.074.0389.1472.0784.2225.1147.18.0868.3655.1644.5544.2371.072.0278.1421.0594.215.0849a7.45,7.45,0,0,0,.757.2213c.0131.0031.0253.0079.0384.0109a23.1886,23.1886,0,0,0,4.9519.2627q-.9-1.7049-1.8851-3.36a75.1734,75.1734,0,0,0-6.6482-9.4375C92.7151,24.4775,92.5907,24.6788,92.4469,24.8651Z" style="fill:#c5cf01"/><path d="M14.1857,48.321c.8716,2.1407,1.8779,4.2059,3.9721,5.4018,3.1506,1.7993,6.2551,1.33,9.32-.3469a7.7894,7.7894,0,0,0,4.411-6.819h0c-.2809-3.3559-1.4482-6.6579-5.116-8.3622-2.832-1.3158-5.7663-.87-8.6211.1548a6.7381,6.7381,0,0,0-4.5039,4.7787A7.9637,7.9637,0,0,0,14.1857,48.321Zm3.5117-3.5824c.2487-2.1829,2.7329-3.4206,4.42-3.393a6.0009,6.0009,0,0,1,3.2261.9117A4.6831,4.6831,0,0,1,26.69,43.5924a4.9443,4.9443,0,0,1,.5654,1.1651,5.785,5.785,0,0,1,.2743,1.3554,6.7978,6.7978,0,0,1,.0209.741,2.3421,2.3421,0,0,1-.04.3742A3.5137,3.5137,0,0,1,26.2161,49.21c-.0429.0355-.0881.0693-.1327.1038a5.6806,5.6806,0,0,1-.6739.4517q-.2075.1178-.4284.2216a6.5648,6.5648,0,0,1-1.9176.5619,6.1646,6.1646,0,0,1-1.028.05,2.7945,2.7945,0,0,1-.4836.0033,2.9013,2.9013,0,0,1-1.3032-.4418,3.6753,3.6753,0,0,1-.3824-.273,6.7481,6.7481,0,0,1-2.0921-3.8372,5.5883,5.5883,0,0,1-.0958-.863A3.1912,3.1912,0,0,1,17.6974,44.7386Z" style="fill:#780d1b"/><path d="M42.5665,63.1346a6.8316,6.8316,0,0,0-1.5078-.6757,6.7394,6.7394,0,0,0-1.6945-.2914c-5.2848.6876-9.7168,2.4225-9.7137,7.6376h0q0,.6.0482,1.1628t.1362,1.0936q.0835.5006.2073.9687a9.2892,9.2892,0,0,0,.33,1.025,7.9194,7.9194,0,0,0,.6914,1.3669c1.3385,2.1063,3.6423,3.4044,7,3.7369,4.253.4213,8.8152-3.4656,8.8852-7.4355h0a10.503,10.503,0,0,0-3.0745-7.5921A7.6261,7.6261,0,0,0,42.5665,63.1346ZM38.1572,74.483a4.5645,4.5645,0,0,1-4.35-4.6849c-.0542-1.59,2.8418-3.9146,4.65-3.8173h0c2.7116.1456,3.882,2.0829,4.008,5.0344C42.5439,72.8637,40.28,74.5714,38.1572,74.483Z" style="fill:#780d1b"/><path d="M64.1576,90.0484c-.8191-1.3615-1.9709-1.3139-2.6837.0854-.0363.0713-.07.1437-.1065.215q-1.4436,2.8451-2.771,5.7488c-.03.0645-.0609.1282-.09.1928a1.5084,1.5084,0,0,0-.0647.1509c-.008.0219-.01.0442-.0169.0662a1.4833,1.4833,0,0,0-.0385.1516c-.0094.0465-.0174.0924-.0223.1389a1.46,1.46,0,0,0-.0073.15c0,.047.0009.0932.0052.14a1.467,1.467,0,0,0,.0217.1466c.0088.0452.0185.0894.0313.1334a1.4994,1.4994,0,0,0,.05.1418c.0167.0413.0341.0817.0544.1214a1.4975,1.4975,0,0,0,.078.1328c.024.0369.0485.0728.0757.1075a1.4835,1.4835,0,0,0,.1027.1162c.0317.0327.064.0641.0987.094a1.5114,1.5114,0,0,0,.1222.093c.0394.0273.08.053.122.0766.0217.0121.04.0279.0622.039a1.4872,1.4872,0,0,0,.151.0647,3.83,3.83,0,0,0,1.7328.28,3.3821,3.3821,0,0,0,.356.01c.0387,0,.0773.0054.116.0038,1.6685-.1859,3.4039.1254,4.9987-.59.8551-.3838,1.2207-.87,1.1137-1.5295a2.3492,2.3492,0,0,0-.2635-.7211C66.3471,93.8679,65.2919,91.9335,64.1576,90.0484Zm-2.3121,4.7168c.1583-.6493.4212-1.6682,1.0067-1.6925h0c.0134-.0006.0254.0064.0387.007.4282.017.7668.5849.9288,1.106a2.321,2.321,0,0,1,.1013.4933.4923.4923,0,0,1-.02.19c-.0736.2387-.35.2553-.6486.25-.073-.0014-.1471-.0039-.22-.0046a1.2269,1.2269,0,0,0-.394.043.5474.5474,0,0,0-.1334-.0252,2.607,2.607,0,0,1-.5517-.026C61.849,95.0664,61.7943,94.9744,61.8455,94.7652Z" style="fill:#fefefe"/><path d="M19.8663,49.8879a3.6753,3.6753,0,0,0,.3824.273,2.9013,2.9013,0,0,0,1.3032.4418,2.7945,2.7945,0,0,0,.4836-.0033,6.1646,6.1646,0,0,0,1.028-.05,6.5648,6.5648,0,0,0,1.9176-.5619q.2206-.1037.4284-.2216a5.6806,5.6806,0,0,0,.6739-.4517c.0446-.0345.09-.0683.1327-.1038a3.5137,3.5137,0,0,0,1.2944-1.9819,2.3421,2.3421,0,0,0,.04-.3742,6.7978,6.7978,0,0,0-.0209-.741,5.785,5.785,0,0,0-.2743-1.3554,4.9443,4.9443,0,0,0-.5654-1.1651,4.6831,4.6831,0,0,0-1.3459-1.3351,6.0009,6.0009,0,0,0-3.2261-.9117c-1.6869-.0276-4.1716,1.21-4.42,3.393a3.1912,3.1912,0,0,0-.019.4491,5.5883,5.5883,0,0,0,.0958.863A6.7481,6.7481,0,0,0,19.8663,49.8879Z" style="fill:#fd2148"/><path d="M38.4573,65.9808h0c-1.8084-.0969-4.7041,2.2273-4.65,3.8173a4.5646,4.5646,0,0,0,4.35,4.6849c2.1228.0884,4.3867-1.6193,4.3081-3.4678C42.3393,68.0637,41.1689,66.1264,38.4573,65.9808Z" style="fill:#fd2148"/><path d="M62.5056,95.1315a.5474.5474,0,0,1,.1334.0252,1.2269,1.2269,0,0,1,.394-.043c.0725.0007.1466.0032.22.0046.2987.0058.575-.0108.6486-.25a.4923.4923,0,0,0,.02-.19,2.321,2.321,0,0,0-.1013-.4933c-.162-.5211-.5006-1.089-.9288-1.106-.0133-.0006-.0253-.0076-.0387-.007h0c-.5855.0243-.8484,1.0432-1.0067,1.6925-.0512.2092.0035.3012.1084.34A2.607,2.607,0,0,0,62.5056,95.1315Z" style="fill:#69cfcc"/></svg>